<svg xmlns="http://www.w3.org/2000/svg" width="800" height="560" viewBox="0 0 800 560" fill="none" aria-hidden="true">
  <defs>
    <linearGradient id="heroBg" x1="0%" y1="0%" x2="100%" y2="100%">
      <stop offset="0%" stop-color="#f0f7ff"/>
      <stop offset="45%" stop-color="#faf5ff"/>
      <stop offset="100%" stop-color="#f8fafc"/>
    </linearGradient>
    <linearGradient id="heroAccent" x1="0%" y1="0%" x2="100%" y2="0%">
      <stop offset="0%" stop-color="#0070f3"/>
      <stop offset="100%" stop-color="#7928ca"/>
    </linearGradient>
    <filter id="sh" x="-20%" y="-20%" width="140%" height="140%">
      <feDropShadow dx="0" dy="12" stdDeviation="24" flood-opacity="0.12"/>
    </filter>
  </defs>
  <rect width="800" height="560" rx="24" fill="url(#heroBg)"/>
  <rect x="40" y="48" width="720" height="56" rx="12" fill="#fff" stroke="#e5e7eb" stroke-width="1" filter="url(#sh)"/>
  <circle cx="72" cy="76" r="8" fill="#ff5f57"/>
  <circle cx="96" cy="76" r="8" fill="#febc2e"/>
  <circle cx="120" cy="76" r="8" fill="#28c840"/>
  <rect x="180" y="64" width="420" height="28" rx="8" fill="#f3f4f6"/>
  <rect x="40" y="128" width="220" height="384" rx="16" fill="#fff" stroke="#e5e7eb" stroke-width="1" filter="url(#sh)"/>
  <rect x="64" y="156" width="172" height="10" rx="4" fill="#e5e7eb"/>
  <rect x="64" y="182" width="140" height="10" rx="4" fill="#f3f4f6"/>
  <rect x="64" y="208" width="160" height="10" rx="4" fill="#f3f4f6"/>
  <rect x="64" y="260" width="172" height="72" rx="10" fill="url(#heroAccent)" opacity="0.12"/>
  <rect x="76" y="272" width="80" height="8" rx="3" fill="#0070f3"/>
  <rect x="76" y="292" width="120" height="6" rx="2" fill="#94a3b8"/>
  <rect x="280" y="128" width="480" height="384" rx="16" fill="#fff" stroke="#e5e7eb" stroke-width="1" filter="url(#sh)"/>
  <rect x="308" y="160" width="200" height="14" rx="4" fill="#111827"/>
  <rect x="308" y="192" width="424" height="120" rx="12" fill="#f9fafb" stroke="#e5e7eb"/>
  <rect x="328" y="212" width="88" height="80" rx="8" fill="#fff" stroke="#d1d5db"/>
  <rect x="432" y="220" width="160" height="8" rx="2" fill="#e5e7eb"/>
  <rect x="432" y="240" width="280" height="6" rx="2" fill="#f3f4f6"/>
  <rect x="432" y="256" width="200" height="6" rx="2" fill="#f3f4f6"/>
  <rect x="308" y="332" width="424" height="48" rx="10" fill="#ecfdf5" stroke="#10b981" opacity="0.85"/>
  <rect x="328" y="344" width="100" height="24" rx="6" fill="#10b981"/>
  <rect x="308" y="392" width="200" height="10" rx="3" fill="#e5e7eb"/>
  <rect x="308" y="414" width="280" height="10" rx="3" fill="#f3f4f6"/>
</svg>
